<?xml version="1.0" encoding="UTF-8"?>
<svg width="167px" height="191px" viewBox="0 0 167 191" version="1.1" xmlns="http://www.w3.org/2000/svg" xmlns:xlink="http://www.w3.org/1999/xlink">
    <title>lg-logo-dark-h</title>
    <g id="Page-1" stroke="none" stroke-width="1" fill="none" fill-rule="evenodd">
        <g id="lg-logo-dark-h" fill="#2B2B2B" fill-rule="nonzero">
            <path d="M138.7,0 L28,0 C12.5,0 0,12.5 0,28 L0,36.1 C0,39.3 0.6,42.2 1.6,45.1 C5.3,34.1 15.7,26.1 28,26.1 L138.7,26.1 C151,26.1 161.3,34.1 165.1,45.1 C166.1,42.3 166.7,39.3 166.7,36.1 L166.7,28 C166.7,12.5 154.2,0 138.7,0 Z" id="Path"></path>
            <path d="M114,164.4 C111.9,163.9 109.8,163.5 107.7,163 C105.6,162.6 103.4,162.1 101.2,161.7 C96.8,160.9 92.4,160 87.9,159.4 C85.7,159 83.4,158.7 81.2,158.4 C79,158.1 76.8,157.9 74.6,157.6 C70.2,157.2 65.9,156.8 61.7,156.7 C57.5,156.5 53.4,156.5 49.6,156.6 C48.8,156.6 48,156.7 47.2,156.7 L47.2,159.1 C47.2,176.7 61.5,191 79.1,191 L87.6,191 C103,191 115.9,180.1 118.8,165.5 C117.2,165.1 115.6,164.7 114,164.4 Z" id="Path"></path>
            <path d="M130.7,110.1 C130.7,87 112,68.3 88.9,68.3 L77.8,68.3 C54.7,68.3 36,87 36,110.1 L36,143.1 L36,143.1 C36,143.1 36,143.1 36,143.2 C36,143.4 36,147.2 40,147.2 C40.3,147.2 40.6,147.2 40.8,147.1 C45.7,146.5 50.2,146.1 55,146 C60.8,145.7 66.8,145.9 72.9,146.2 C79,146.6 85.2,147.3 91.3,148.2 C97.4,149.2 103.5,150.3 109.4,151.7 C112.3,152.4 115.3,153.2 118.1,153.9 C120.6,154.6 123,155.3 125.4,156 C125.8,156.1 126.3,156.2 126.8,156.2 C129,156.2 130.8,154.4 130.8,152.2 C130.8,152.1 130.8,152 130.8,151.9 L130.8,151.9 L130.7,110.1 L130.7,110.1 Z M83.4,106.3 C67.5,106.3 54.6,96.7 54.6,91.6 C54.6,86.5 65.9,96.1 81.8,96.1 C97.7,96.1 112.1,86.5 112.1,91.6 C112.1,96.7 99.3,106.3 83.4,106.3 Z" id="Shape"></path>
        </g>
    </g>
</svg>