<?xml version="1.0" encoding="utf-8"?>
<!-- Generator: Adobe Illustrator 26.2.1, SVG Export Plug-In . SVG Version: 6.00 Build 0)  -->
<svg version="1.1" id="Capa_1" xmlns="http://www.w3.org/2000/svg" xmlns:xlink="http://www.w3.org/1999/xlink" x="0px" y="0px"
	 viewBox="0 0 800 800" style="enable-background:new 0 0 800 800;" xml:space="preserve">
<style type="text/css">
	.st0{fill:#070508;}
</style>
<g>
	<path class="st0" d="M660.5,390.6c22.1-60.2,10.6-131.7-46.1-178.8c-15.7-13.1-34.1-22.9-53.7-29.5v73.3c0,4.2-2.9,7.7-6.8,8.8
		v20.3c26.4,4,46.7,26.7,46.7,54.2V378c0,30.3-24.6,54.9-54.9,54.9h-20c-10.4,0-20.1-3-28.4-8c-19.4,16.2-43.2,27.2-69.4,31.1
		c-2.1,6.7-8.3,11.7-15.8,11.7h-33.9c-9.2,0-16.6-7.4-16.6-16.6v-9.9c0-9.2,7.4-16.6,16.6-16.6H412c5.7,0,10.7,2.9,13.7,7.3
		c20.2-3.3,38.6-11.7,53.9-23.9c-5.6-8.6-9-18.9-9-30v-39.2c0-27.5,20.3-50.2,46.7-54.2v-20.3c-3.9-1-6.8-4.5-6.8-8.8v-83
		c-37.3-2.4-75.2,5.4-106.3,23.4c-12.9,7.5-23.1,15.4-31.2,23.5H167.8c-22.8,0-41.4,18.6-41.4,41.4v127.7
		c0,22.8,18.6,41.4,41.4,41.4h47.6c4.8,6.5,11.2,12.8,19,18.7c16,12,37.9,14.5,53.4,14.5c10.6,0,18.2-1.2,19-1.3
		c1.9-0.3,3.2-1.9,3.2-3.8c0-1.9-1.5-3.4-3.4-3.7c-0.3,0-32.8-3.8-38-24.4H332c0.3,1.4,0.2,2.4,0.2,2.4s-0.5,2.4-1,5.8
		c-0.5,3.4-2.9,6.7-2.4,13c0.5,6.2,11.1,10.1,11.1,10.1s-8.2,6.2-7.2,11.5c1,5.3,5.3,8.2,5.3,8.2s-1,7.7-2.6,16.8
		c-1.6,9.1-0.8,26.4,10.3,31.2c11.1,4.8,47.1,12,76.4,15.9s37.5,21.2,45.7,37.5c8.2,16.3,4.8,45.7,4.8,45.7L623,532.9
		c0,0-9.6-16.3-6.7-47.6C619.2,454.1,647.1,427.2,660.5,390.6z M283.2,455.5c-13.9-0.5-31.5-3.3-44.3-12.9
		c-7.8-5.9-14-12.1-18.4-18.6c-0.7-1-1.9-1.6-3.1-1.6h-49.6c-18.7,0-33.9-15.2-33.9-33.9V260.9c0-18.7,15.2-33.9,33.9-33.9h198.3
		c-14.2,16.7-20.3,33.4-23.8,46.6H229.5v11h110.2c-1,4.4-1.8,8.1-2.8,10.8c-1,2.5-1.4,5.3-1.5,8H278v11h58.4c2,10,6.4,18.4,6.4,18.4
		s-7.7,11.2-16.9,24.2h-96.4v11H318c-6.6,9.2-13.2,18-17.6,23.3c-10.5,12.6,3.6,24.8,13,26.3c6.2,1,10.3,2.7,13.1,4.7h-62.3
		c-1,0-2,0.4-2.8,1.2c-0.7,0.8-1.1,1.8-1,2.8C261.5,441.7,272.4,450.5,283.2,455.5z"/>
	<rect x="164.6" y="273.6" class="st0" width="55.2" height="11"/>
	<rect x="164.6" y="330.3" class="st0" width="55.2" height="11"/>
	<rect x="229.5" y="330.3" class="st0" width="98.3" height="11"/>
	<rect x="164.6" y="303.5" class="st0" width="103.2" height="11"/>
	<rect x="164.6" y="357.1" class="st0" width="55.2" height="11"/>
	<path class="st0" d="M506.5,347v25.7c0,14.4,11.7,26,26,26h6.5c14.4,0,26-11.7,26-26V347c0-14.4-11.7-26-26-26h-6.5
		C518.1,321,506.5,332.7,506.5,347z"/>
</g>
</svg>
